<?xml version="1.0" standalone="no"?>
<!DOCTYPE svg PUBLIC "-//W3C//DTD SVG 20010904//EN"
 "http://www.w3.org/TR/2001/REC-SVG-20010904/DTD/svg10.dtd">
<svg version="1.0" xmlns="http://www.w3.org/2000/svg"
 width="260.000000pt" height="260.000000pt" viewBox="0 0 260.000000 260.000000"
 preserveAspectRatio="xMidYMid meet">
<metadata>
Created by potrace 1.11, written by Peter Selinger 2001-2013
</metadata>
<g transform="translate(0.000000,260.000000) scale(0.100000,-0.100000)"
fill="#000000" stroke="none">
<path d="M1243 2496 c0 -7 6 -13 14 -13 7 0 13 4 13 8 0 4 -6 9 -13 12 -8 3
-14 0 -14 -7z"/>
<path d="M1346 2502 c-3 -5 -20 -7 -38 -4 -18 2 -30 1 -26 -3 3 -3 28 -8 55
-11 96 -7 130 -13 301 -51 12 -3 22 -10 22 -15 0 -5 4 -7 8 -4 5 3 31 -6 58
-19 27 -14 55 -25 62 -25 6 0 12 -4 12 -10 0 -5 5 -10 10 -10 61 0 -147 94
-250 114 -19 3 -45 8 -57 11 -13 3 -33 7 -45 10 -13 3 -42 6 -65 7 -23 0 -40
5 -37 10 3 4 3 8 0 8 -3 0 -7 -4 -10 -8z"/>
<path d="M1110 2484 c0 -7 15 -9 44 -4 24 3 51 5 60 4 9 -1 16 2 16 7 0 4 -27
7 -60 6 -35 -1 -60 -6 -60 -13z"/>
<path d="M1015 2470 c-97 -23 -203 -59 -212 -72 -4 -8 0 -9 13 -4 76 31 201
67 269 78 11 2 16 6 10 9 -5 3 -41 -2 -80 -11z"/>
<path d="M758 2383 c-38 -19 -36 -35 2 -17 17 9 30 20 30 25 0 5 -1 9 -2 8 -2
-1 -15 -8 -30 -16z"/>
<path d="M682 2340 c-51 -28 -115 -72 -139 -97 -12 -13 -26 -23 -31 -23 -28 0
-252 -267 -252 -300 0 -6 -4 -10 -9 -10 -7 0 -19 -28 -19 -47 0 -3 -4 -9 -9
-12 -14 -9 -49 -90 -79 -182 -30 -91 -35 -119 -22 -119 4 0 8 6 9 13 3 62 77
262 102 278 5 4 6 12 3 18 -4 6 -2 11 3 11 6 0 11 5 11 10 0 13 68 117 98 150
12 14 22 31 22 38 0 7 5 10 10 7 6 -3 10 -1 10 5 0 6 27 37 60 69 33 32 60 56
60 53 0 -3 15 8 33 25 30 29 144 107 170 116 7 2 10 7 7 10 -3 2 -20 -3 -38
-13z"/>
<path d="M1830 2350 c0 -6 8 -14 18 -17 23 -9 126 -76 130 -85 2 -5 8 -8 13
-8 4 0 24 -15 43 -32 113 -107 101 -94 166 -178 19 -25 37 -47 41 -50 3 -3 12
-20 20 -37 8 -18 16 -33 19 -33 4 0 17 -22 31 -50 13 -27 27 -50 32 -50 13 0
8 16 -13 43 -11 14 -20 28 -20 30 0 7 -62 109 -75 123 -5 6 -21 26 -35 44 -46
62 -122 140 -136 140 -8 0 -14 6 -14 13 0 6 -30 32 -66 57 -36 25 -74 53 -85
63 -10 9 -19 14 -19 11 0 -4 -11 1 -25 10 -14 9 -25 12 -25 6z"/>
<path d="M1543 1897 c-3 -5 -6 -159 -6 -343 0 -184 -1 -334 -2 -334 -1 0 -24
28 -51 63 -27 34 -53 67 -59 73 -5 7 -35 44 -65 83 -30 39 -58 71 -62 71 -5 0
-8 4 -8 10 0 8 -76 107 -200 260 -16 19 -42 53 -57 75 l-29 40 -142 0 c-87 0
-143 -4 -145 -10 -2 -5 -3 -266 -3 -579 l1 -569 125 1 c69 0 134 1 146 1 21 1
21 2 20 332 -1 182 2 336 6 342 4 7 8 7 8 2 0 -6 10 -21 23 -35 12 -14 69 -85
126 -158 57 -73 109 -138 115 -145 6 -7 24 -30 40 -52 17 -22 33 -42 36 -45 3
-3 21 -25 40 -50 19 -25 38 -46 42 -48 5 -2 8 -8 8 -13 0 -6 10 -21 23 -33 12
-13 33 -38 46 -55 l23 -31 143 0 143 0 0 578 0 577 -140 0 c-77 1 -142 -3
-145 -8z m183 -39 c3 -4 -1 -5 -10 -4 -8 1 -18 5 -22 8 -3 4 1 5 10 4 8 -1 18
-5 22 -8z m-100 -80 c4 -7 4 -10 -1 -6 -4 4 -15 2 -24 -5 -14 -11 -14 -10 -2
6 16 20 18 21 27 5z m37 -23 c4 -8 3 -16 -1 -19 -4 -3 -9 4 -9 15 -2 23 3 25
10 4z m147 1 c0 -2 -6 -9 -14 -15 -11 -9 -16 -9 -22 0 -4 7 -3 9 4 5 6 -3 13
-2 17 4 6 10 15 14 15 6z m-203 -29 c0 -8 -6 -14 -14 -14 -9 0 -10 4 -2 14 6
7 12 13 14 13 1 0 2 -6 2 -13z m60 -32 c0 -8 -4 -12 -9 -9 -5 3 -6 10 -3 15 9
13 12 11 12 -6z m79 3 c3 -4 -1 -5 -10 -4 -8 1 -18 5 -22 8 -3 4 1 5 10 4 8
-1 18 -5 22 -8z m20 -80 c3 -4 -1 -5 -10 -4 -8 1 -18 5 -22 8 -3 4 1 5 10 4 8
-1 18 -5 22 -8z m41 -3 c0 -8 -4 -12 -9 -9 -5 3 -6 10 -3 15 9 13 12 11 12 -6z
m-140 -40 c0 -8 -4 -12 -9 -9 -5 3 -6 10 -3 15 9 13 12 11 12 -6z m-22 -35 c3
-5 1 -10 -4 -10 -6 0 -11 5 -11 10 0 6 2 10 4 10 3 0 8 -4 11 -10z m-30 -60
c3 -6 -1 -7 -9 -4 -18 7 -21 14 -7 14 6 0 13 -4 16 -10z m52 -15 c0 -8 -4 -12
-9 -9 -5 3 -6 10 -3 15 9 13 12 11 12 -6z m43 -25 c0 -5 -5 -10 -11 -10 -5 0
-7 5 -4 10 3 6 8 10 11 10 2 0 4 -4 4 -10z m80 -40 c0 -5 -5 -10 -11 -10 -5 0
-7 5 -4 10 3 6 8 10 11 10 2 0 4 -4 4 -10z m-80 -40 c0 -5 -2 -10 -4 -10 -3 0
-8 5 -11 10 -3 6 -1 10 4 10 6 0 11 -4 11 -10z m-43 -25 c0 -8 -4 -12 -9 -9
-5 3 -6 10 -3 15 9 13 12 11 12 -6z m-22 -34 c-9 -8 -36 -10 -30 -2 2 4 11 8
20 8 8 0 13 -3 10 -6z m-40 -20 c3 -5 2 -12 -3 -15 -5 -3 -9 1 -9 9 0 17 3 19
12 6z m-21 -59 c3 -5 -1 -9 -9 -9 -8 0 -12 4 -9 9 3 4 7 8 9 8 2 0 6 -4 9 -8z
m56 2 c0 -8 -19 -13 -24 -6 -3 5 1 9 9 9 8 0 15 -2 15 -3z m121 -91 c12 -16
12 -17 -2 -6 -9 7 -20 9 -24 5 -5 -4 -5 -1 -1 6 9 16 11 15 27 -5z m-54 -22
c0 -11 -5 -18 -9 -15 -4 3 -5 11 -1 19 7 21 12 19 10 -4z m-40 -16 c0 -8 -4
-12 -9 -9 -5 3 -6 10 -3 15 9 13 12 11 12 -6z m123 -15 c0 -5 -5 -10 -11 -10
-5 0 -7 5 -4 10 3 6 8 10 11 10 2 0 4 -4 4 -10z m17 -115 c0 -8 -4 -12 -9 -9
-5 3 -6 10 -3 15 9 13 12 11 12 -6z m-20 -140 c0 -8 -4 -12 -9 -9 -5 3 -6 10
-3 15 9 13 12 11 12 -6z"/>
<path d="M2349 1783 c6 -11 7 -23 4 -27 -3 -3 -2 -6 4 -6 6 0 13 -10 16 -22 3
-13 13 -48 22 -78 9 -30 18 -64 20 -75 2 -11 6 -31 9 -45 10 -45 19 -144 19
-212 0 -38 4 -68 8 -68 8 0 4 172 -6 235 -9 57 -45 208 -53 220 -4 5 -7 15 -8
20 -5 24 -24 64 -34 70 -9 6 -9 2 -1 -12z"/>
<path d="M108 1523 c-1 -18 -4 -33 -8 -43 -5 -15 -5 -130 0 -130 4 0 8 21 9
48 3 70 9 121 16 132 3 6 1 10 -4 10 -6 0 -12 -8 -13 -17z"/>
<path d="M86 1328 c3 -5 7 -43 9 -86 12 -313 172 -625 430 -842 62 -52 215
-150 235 -150 13 0 53 -22 62 -35 4 -5 8 -7 8 -3 0 4 22 -1 50 -12 50 -20 142
-43 215 -55 63 -10 200 -14 212 -7 6 4 -32 8 -84 10 -52 1 -127 9 -167 18 -39
9 -79 16 -88 16 -10 -1 -18 4 -18 9 0 6 -4 8 -9 5 -5 -3 -26 2 -47 11 -22 9
-44 18 -50 19 -33 6 -256 131 -274 153 -3 3 -34 31 -70 61 -36 30 -74 65 -85
79 -11 13 -29 34 -40 45 -26 27 -105 145 -105 157 0 5 -3 9 -8 9 -8 0 -47 81
-44 93 1 4 -2 7 -7 7 -8 0 -51 111 -70 185 -22 87 -37 196 -36 271 0 34 -4 51
-12 51 -7 0 -10 -4 -7 -9z"/>
<path d="M2439 1218 c0 -13 -2 -32 -4 -43 -2 -11 -7 -42 -11 -70 -7 -49 -9
-57 -14 -72 -1 -5 -3 -12 -5 -18 -1 -5 -3 -12 -4 -15 -2 -3 -5 -18 -7 -35 -3
-16 -9 -31 -15 -33 -5 -2 -9 -10 -9 -18 0 -17 -69 -162 -105 -221 -14 -24 -22
-43 -17 -43 10 0 25 27 124 223 11 20 16 37 12 37 -3 0 -2 6 4 13 25 31 78
317 58 317 -3 0 -6 -10 -7 -22z"/>
<path d="M2226 642 c12 -19 -245 -280 -260 -264 -3 3 -6 0 -6 -6 0 -10 -176
-117 -194 -117 -5 0 -11 -7 -13 -15 -3 -9 -1 -11 4 -5 4 6 14 11 22 13 27 6
177 97 211 129 19 18 38 33 42 33 12 0 119 109 158 160 19 25 39 48 45 52 6 5
6 10 -1 16 -6 5 -10 7 -8 4z"/>
<path d="M1669 215 c-31 -13 -67 -26 -80 -29 -13 -3 -35 -8 -49 -11 -14 -3
-67 -11 -117 -18 -51 -6 -93 -15 -93 -19 0 -5 12 -6 28 -4 15 3 50 7 77 11
107 13 270 60 300 87 16 14 -7 8 -66 -17z"/>
</g>
</svg>
